<svg version="1.1" id="Layer_1" xmlns="http://www.w3.org/2000/svg" xmlns:xlink="http://www.w3.org/1999/xlink" x="0px" y="0px"
	 width="100%" viewBox="0 0 1024 574" enable-background="new 0 0 1024 574" xml:space="preserve">
<path fill="#FBFBFB" opacity="1.000000" stroke="none" 
	d="
M934.909546,473.972351 
	C934.257446,475.914368 933.605347,477.856415 932.316589,479.954773 
	C931.117920,480.698242 930.555847,481.285339 929.993774,481.872437 
	C925.142212,483.519989 921.577026,482.295441 920.378723,477.481659 
	C919.324036,473.244202 919.339417,468.668671 919.391418,464.248413 
	C919.439819,460.123352 920.158447,456.006165 920.961853,451.355652 
	C921.250977,450.224121 921.160278,449.622498 921.069580,449.020874 
	C921.274231,445.279816 921.478943,441.538788 922.045715,437.271484 
	C922.294189,436.170227 922.180603,435.595184 922.067017,435.020111 
	C922.007141,419.648163 921.947266,404.276184 922.232056,388.202881 
	C922.375610,385.997772 922.174500,384.493988 921.973450,382.990204 
	C920.999756,374.558899 919.755981,366.148193 919.110657,357.691833 
	C917.904541,341.885651 897.968140,330.400116 881.273438,342.071075 
	C877.657715,344.598785 874.677368,348.125122 871.698730,351.454865 
	C866.216553,357.583313 862.042358,358.326233 855.116333,353.988647 
	C854.975281,353.900330 854.813354,353.834991 854.694336,353.723480 
	C840.109192,340.057739 827.747314,351.077423 823.147095,365.889252 
	C818.299133,381.498871 817.774292,397.765686 819.665833,413.922058 
	C820.959412,424.971436 823.621826,435.854492 825.325500,446.865570 
	C825.846375,450.232147 825.671936,453.867554 825.001526,457.216888 
	C824.140381,461.519714 820.926575,464.346893 816.598633,464.597382 
	C812.227600,464.850342 808.676453,462.200043 807.492859,458.118500 
	C806.470703,454.593658 806.027466,450.460266 806.808716,446.922913 
	C812.925537,419.226440 813.385193,391.417603 809.081116,363.483948 
	C808.454102,359.414398 807.194885,355.347992 805.600769,351.543030 
	C802.990601,345.312866 798.988464,340.172668 791.594238,339.497131 
	C783.048035,338.716400 775.752625,341.268646 770.753906,348.654175 
	C765.018555,357.128082 762.456482,366.810028 760.918457,376.716217 
	C756.403137,405.799500 757.242371,434.818848 762.320557,463.782898 
	C763.409180,469.992188 764.090393,476.332550 764.246521,482.630219 
	C764.430054,490.031586 760.190491,494.854340 754.139771,495.222961 
	C748.311157,495.578033 742.604126,490.479126 742.007263,483.648132 
	C741.665283,479.733795 741.912048,475.610016 742.764404,471.773987 
	C750.377869,437.508759 751.700012,403.130890 744.889526,368.603210 
	C744.061829,364.407196 742.543945,360.264923 740.776733,356.355042 
	C737.759399,349.679382 732.728577,345.208527 725.015320,345.205322 
	C717.591797,345.202271 711.647827,348.592316 708.416992,355.263794 
	C705.981750,360.292419 703.904358,365.720947 702.936768,371.195801 
	C697.837585,400.048889 697.736389,428.852295 704.966431,457.457520 
	C707.055969,465.724609 707.694824,473.883759 702.537170,481.474243 
	C697.588379,488.757263 688.139099,488.241913 683.882812,480.421387 
	C680.924744,474.986420 681.776428,469.483948 683.444031,463.933594 
	C686.121155,455.023254 689.880798,446.266785 691.210449,437.157349 
	C694.353027,415.628296 694.277588,393.971252 689.665466,372.552399 
	C688.976196,369.351379 687.652161,366.180603 686.066223,363.301941 
	C683.071472,357.866180 678.119690,356.017181 672.094727,356.824615 
	C665.790344,357.669434 664.000854,359.778259 661.897644,366.668579 
	C659.270508,375.275604 660.356567,383.810608 661.427551,392.417755 
	C661.982910,396.880768 662.639893,401.350128 662.823364,405.834137 
	C662.959961,409.172943 661.872192,412.394806 657.884827,412.769043 
	C654.045593,413.129333 651.221924,410.920593 650.745789,407.240784 
	C650.310547,403.877747 651.009644,400.355652 651.308228,396.912231 
	C652.167053,387.007233 653.452515,377.120880 653.829590,367.199036 
	C654.070312,360.864014 651.849487,354.485291 646.621704,350.786377 
	C626.236389,336.362732 619.224976,314.253510 611.933228,292.225616 
	C609.138794,283.783783 608.904053,283.468231 599.991028,283.501770 
	C583.491943,283.563843 566.992004,283.842163 550.494812,283.719513 
	C544.926880,283.678131 542.076477,286.094666 540.165222,291.111359 
	C532.706116,310.689819 529.156860,330.495148 535.090149,351.206940 
	C535.898315,354.027771 535.814880,357.143219 535.880432,360.128082 
	C535.973877,364.381287 533.891357,367.131714 529.584412,367.748810 
	C526.061584,368.253540 521.956482,365.062042 521.447815,361.139954 
	C521.112854,358.556824 521.504150,355.859589 521.731995,353.227417 
	C522.247375,347.274506 523.510742,341.306000 523.288696,335.388153 
	C522.938721,326.062988 516.621277,322.867310 508.563110,327.329437 
	C506.964722,328.214569 505.375885,329.153015 503.915100,330.244171 
	C498.303406,334.435760 492.169281,335.166321 486.029541,332.108368 
	C475.137543,326.683502 465.331268,330.516876 461.670990,343.837280 
	C457.669647,358.399078 457.831848,373.180817 459.648132,387.969208 
	C460.620361,395.885406 462.433899,403.695496 463.731964,411.575836 
	C464.217499,414.523529 464.547363,417.534973 464.544220,420.516907 
	C464.538147,426.281097 460.389984,431.258972 455.672119,431.538818 
	C450.412323,431.850800 445.213776,427.076477 445.221832,420.961090 
	C445.228790,415.685394 445.880493,410.304047 447.060303,405.155731 
	C451.169250,387.225403 452.067413,369.227020 448.996918,351.086243 
	C448.447327,347.839233 447.453003,344.604462 446.208710,341.549530 
	C442.065704,331.377655 434.729279,327.739105 423.771423,330.155487 
	C414.722015,332.151031 409.376007,339.760132 410.183075,350.039764 
	C410.546814,354.672821 411.556183,359.255066 412.269531,363.860840 
	C412.724060,366.795410 412.322601,369.448456 408.812805,369.879639 
	C405.150452,370.329529 403.554321,367.915131 403.669403,364.677704 
	C403.816315,360.544678 404.685791,356.437286 404.831543,352.304321 
	C404.941833,349.175873 404.739197,345.953857 404.089508,342.898163 
	C402.698822,336.357697 398.931152,331.508972 392.108307,330.352295 
	C385.075562,329.160004 379.093536,331.851562 375.418701,337.965088 
	C369.541626,347.742340 368.396881,358.675598 369.419434,369.783630 
	C369.889252,374.886932 371.459778,379.883545 372.418060,384.949951 
	C372.786560,386.898254 373.076599,388.916565 372.989075,390.884583 
	C372.801544,395.102753 370.587555,397.722595 366.249115,398.128937 
	C361.666168,398.558167 358.472931,396.251312 358.160095,391.896179 
	C357.846344,387.527679 358.486816,382.976654 359.411591,378.655975 
	C361.607361,368.396729 362.533752,358.186371 359.105560,348.080780 
	C356.893646,341.560486 352.851196,336.459015 345.376953,336.013458 
	C337.733307,335.557800 333.018768,340.199463 329.826294,346.526672 
	C328.643005,348.871918 327.894653,351.506226 327.351685,354.093445 
	C324.181580,369.197876 323.616669,384.473602 324.485199,399.846527 
	C325.534668,418.422516 329.860138,436.350098 334.568237,454.260406 
	C336.017914,459.775055 336.375488,465.793823 336.040039,471.511780 
	C335.479980,481.059143 327.873749,488.014648 319.562286,487.636169 
	C310.621674,487.229034 303.217102,479.364532 304.198120,469.504028 
	C305.130615,460.130768 307.364960,450.818909 309.758606,441.671539 
	C317.872284,410.665100 317.401245,379.688293 309.846741,348.743500 
	C308.478424,343.138672 305.731903,337.865692 303.570068,332.460144 
	C299.194275,321.518707 300.944244,315.303894 310.440857,308.257355 
	C317.254730,303.201416 318.280945,299.928986 315.549713,291.965393 
	C310.807220,278.137360 310.807220,278.143921 295.965881,278.154694 
	C280.800049,278.165680 265.633575,278.240906 250.468765,278.118164 
	C245.751724,278.080017 242.895874,280.030945 241.680756,284.536621 
	C241.334061,285.822144 240.981049,287.119965 240.469666,288.344818 
	C236.974792,296.715698 238.705215,303.585144 246.196991,308.901123 
	C255.377045,315.415009 256.976440,324.663116 254.562576,334.711914 
	C246.963730,366.345428 246.458633,398.400391 248.656097,430.577759 
	C249.459991,442.348907 251.359375,454.061554 253.123962,465.745789 
	C254.599426,475.515717 254.198517,484.917114 250.364243,494.170258 
	C245.039093,507.021332 246.049225,520.234802 248.608093,533.510437 
	C249.677628,539.059387 250.824524,544.660156 251.101471,550.278564 
	C251.474442,557.844727 247.676544,563.022705 242.712753,562.986511 
	C237.851746,562.951111 233.797607,557.444458 234.321106,550.213501 
	C234.763062,544.108826 236.161041,538.057251 237.360031,532.026733 
	C240.189331,517.796387 239.511703,503.860077 234.084427,490.311646 
	C230.786194,482.078033 231.130219,473.814301 232.884781,465.284119 
	C240.986679,425.894440 239.717285,386.453766 232.710617,347.093292 
	C231.798264,341.968170 229.465149,336.983551 227.140747,332.252899 
	C224.658920,327.201904 220.274445,323.659851 214.465744,324.066803 
	C208.183167,324.506958 202.313751,327.620483 200.641159,333.902802 
	C198.048813,343.639648 196.046082,353.671814 195.165161,363.699310 
	C192.790894,390.725739 193.993332,417.558502 200.588196,444.099091 
	C202.042694,449.952667 201.203247,456.604797 200.324051,462.731934 
	C199.705444,467.042969 196.275970,469.962646 191.422760,470.052002 
	C186.303635,470.146301 182.341980,467.614716 181.221970,462.859802 
	C180.148758,458.303528 179.642578,453.163513 180.610596,448.649628 
	C186.880600,419.412720 189.219681,389.958374 185.823410,360.235168 
	C184.756714,350.899811 182.529877,341.592010 179.796036,332.586731 
	C177.765961,325.899689 172.160065,322.464203 165.043747,321.564575 
	C160.788147,321.026550 156.556717,320.061432 152.416260,318.919189 
	C148.729691,317.902161 146.842529,319.660400 145.163406,322.479858 
	C139.912369,331.297089 138.197800,341.080170 137.078522,351.067169 
	C134.344498,375.462341 136.555527,399.631012 140.143539,423.759094 
	C140.503311,426.178375 140.530487,428.837769 139.906708,431.170380 
	C138.823212,435.222229 136.492493,438.639648 131.704529,438.584930 
	C127.245064,438.534027 124.239609,435.610840 123.893906,431.529755 
	C123.438034,426.148132 123.616165,420.567535 124.516769,415.240692 
	C129.201599,387.531586 129.922821,359.847198 123.817871,332.318115 
	C122.299461,325.471161 118.696373,319.089233 116.078613,312.482819 
	C111.487122,300.895233 106.656746,289.394073 102.388672,277.688202 
	C91.902061,248.926910 81.671890,220.072083 71.354233,191.249268 
	C69.217003,185.278854 69.970055,184.232147 76.384834,184.213654 
	C84.551147,184.190109 92.718391,184.143326 100.883774,184.235657 
	C109.921265,184.337845 112.392990,186.388809 115.199394,195.082474 
	C122.503662,217.709579 129.899200,240.307236 137.282333,262.908783 
	C137.534286,263.680115 138.043716,264.367310 138.894196,265.953735 
	C139.783936,263.827057 140.521576,262.285797 141.085175,260.683319 
	C148.922470,238.399216 156.738129,216.107483 164.553894,193.815796 
	C167.144241,186.427704 170.046219,184.277786 177.797348,184.237335 
	C185.796738,184.195572 193.796631,184.239777 201.796280,184.255005 
	C208.209488,184.267212 209.051147,185.354126 206.783981,191.240631 
	C196.379608,218.254730 185.877151,245.231110 175.504364,272.257263 
	C172.705414,279.549896 170.114075,286.928772 167.663910,294.346161 
	C166.177444,298.846100 166.680725,303.246460 169.769806,307.089081 
	C175.420410,314.117981 183.777115,313.373291 187.535583,304.697723 
	C194.737747,288.073120 201.323807,271.173859 207.865204,254.272339 
	C221.675934,218.588425 235.194260,182.791229 249.045807,147.123322 
	C253.629883,135.319260 262.914459,129.621399 275.394989,129.096756 
	C289.058075,128.522369 300.552002,132.527344 306.843231,145.689163 
	C309.702026,151.670044 311.617096,158.100037 313.996094,164.312576 
	C330.949585,208.585144 347.833160,252.884750 364.920349,297.105682 
	C370.030457,310.330414 379.561829,314.345734 393.765137,309.090881 
	C391.942200,307.580353 390.444366,306.390839 389.002533,305.136932 
	C355.836700,276.293304 359.594879,211.025452 404.455841,189.154831 
	C429.979645,176.711441 467.583160,180.538208 486.889954,208.349182 
	C490.313385,213.280594 490.415619,215.053345 485.618408,218.815002 
	C479.081940,223.940430 472.265289,228.717331 465.455048,233.481079 
	C462.020599,235.883484 458.926361,235.293655 456.497742,231.674255 
	C449.937653,221.897888 440.876892,217.007095 429.138123,219.468643 
	C417.135162,221.985626 410.396576,230.418533 407.562439,241.936188 
	C404.491486,254.416153 406.003723,266.083588 414.978821,276.055603 
	C424.929810,287.111969 444.187622,286.399902 453.345642,274.603760 
	C458.876068,267.480194 460.785553,267.029907 468.743042,271.750427 
	C473.318207,274.464508 477.727051,277.477692 482.082520,280.538635 
	C487.375244,284.258270 488.429535,287.562653 484.808289,292.766083 
	C480.202026,299.384857 474.780365,305.436188 469.653534,311.802582 
	C474.871490,317.299896 482.901733,316.319824 486.688232,308.607544 
	C490.635498,300.567719 493.886993,292.168121 497.134979,283.806305 
	C511.952606,245.658707 526.670288,207.472290 541.400085,169.290619 
	C543.314819,164.327530 544.837891,159.199570 546.977661,154.339630 
	C554.091187,138.183014 564.847412,132.469772 582.398621,134.188034 
	C596.074158,135.526886 603.148376,143.544037 607.608948,155.648834 
	C621.527649,193.420517 635.738586,231.084671 649.881531,268.773499 
	C654.965210,282.320709 660.141113,295.833710 665.349792,309.333435 
	C667.400330,314.648102 670.185669,319.442291 676.712036,319.773773 
	C678.251465,319.851959 680.410095,319.105865 681.344360,317.967743 
	C690.286255,307.074341 694.683350,294.459930 693.345093,280.421387 
	C691.276306,258.717987 688.624756,237.069229 686.079773,215.413818 
	C685.884155,213.749069 684.950867,211.813095 683.730286,210.685196 
	C676.216858,203.742310 673.208130,194.584015 673.058716,185.058243 
	C672.842163,171.250061 669.623047,158.514038 664.207886,145.958679 
	C660.262939,136.812180 657.581848,127.128838 654.001831,117.813774 
	C651.711365,111.854271 651.190735,112.026062 645.494324,114.756241 
	C642.544800,116.169884 639.279541,117.100327 636.055481,117.729057 
	C629.338257,119.039017 623.336914,121.596390 618.643616,126.684830 
	C613.259766,132.522003 608.974304,133.127960 602.583374,128.758865 
	C598.106506,125.698280 596.550476,118.423920 599.215149,112.973839 
	C599.434021,112.526230 599.671265,112.076660 599.969482,111.680344 
	C608.072510,100.912003 615.764099,89.792747 624.480469,79.545334 
	C628.572632,74.734367 630.560486,70.425453 628.820007,64.398087 
	C628.250122,62.424583 628.159912,60.312561 628.841431,57.708458 
	C631.436340,60.546768 634.031250,63.385078 637.441406,67.115128 
	C637.441406,62.505894 637.441406,58.840576 637.441406,55.175259 
	C637.884216,55.002384 638.327026,54.829510 638.769836,54.656631 
	C641.054871,57.397968 643.126038,60.362442 645.686707,62.816078 
	C648.107117,65.135262 650.756409,67.909531 653.794067,68.783501 
	C685.564880,77.924400 706.276733,99.207581 719.554688,128.473785 
	C727.061768,145.020157 729.081299,162.675293 728.018250,180.724487 
	C727.943359,181.995972 728.008423,183.275696 728.008423,184.092621 
	C734.496704,180.201843 740.524292,175.246048 747.439209,172.704559 
	C764.763611,166.337204 782.066956,167.644531 798.886108,175.481552 
	C800.877747,176.409576 803.626648,176.714218 805.750732,176.192642 
	C818.862305,172.973007 831.975769,180.500961 835.852722,195.133469 
	C838.032959,203.362198 838.767273,212.200165 838.668518,220.746521 
	C838.557312,230.365585 837.927734,239.743515 843.870605,248.096680 
	C844.224182,248.593613 843.916382,249.561050 843.916382,251.005219 
	C837.539429,249.090454 833.902161,244.769836 832.181030,239.451126 
	C830.049377,232.863892 828.524170,225.960098 827.763611,219.079559 
	C826.784729,210.224014 825.827820,201.478882 820.830505,193.849991 
	C819.320129,191.544296 817.027771,189.750900 814.565674,187.472321 
	C813.786194,187.264908 813.534729,187.308014 813.283264,187.351135 
	C813.495422,187.592896 813.707581,187.834671 813.919678,188.076447 
	C823.215637,204.062164 826.526001,221.338562 826.163818,239.736115 
	C825.701599,263.213257 826.036377,286.706543 826.078003,310.192810 
	C826.093262,318.810303 827.645874,320.347504 836.231018,320.347717 
	C853.387939,320.348114 870.544861,320.287354 887.701782,320.252594 
	C889.131470,320.249695 890.561157,320.252228 892.027344,320.252228 
	C891.906250,319.381195 891.971924,318.934570 891.811035,318.827179 
	C876.960327,308.911163 872.511169,293.961670 872.200195,277.307343 
	C871.861267,259.156738 872.051697,240.996262 872.011780,222.840103 
	C872.009583,221.847473 872.011475,220.854843 872.011475,218.933380 
	C867.773987,218.933380 863.694580,218.995590 859.617798,218.918411 
	C853.904419,218.810226 852.026794,217.101776 851.916443,211.516876 
	C851.771667,204.190506 851.835571,196.858963 851.885620,189.530167 
	C851.916382,185.028625 854.284058,182.851929 858.786987,182.898682 
	C862.939209,182.941788 867.092224,182.907837 872.081726,182.907837 
	C872.081726,180.521484 872.082825,178.278992 872.081482,176.036484 
	C872.076416,167.707687 872.021057,159.378540 872.082458,151.050232 
	C872.123047,145.552521 873.843079,143.726425 879.161987,143.662033 
	C888.155823,143.553146 897.152222,143.517365 906.146118,143.602737 
	C911.606323,143.654556 913.375244,145.412064 913.423584,150.827316 
	C913.517151,161.310501 913.450989,171.795105 913.450989,182.856323 
	C921.309937,182.856323 928.732849,182.846893 936.155701,182.858627 
	C946.310181,182.874695 947.037048,183.596359 947.037598,193.544022 
	C947.037903,199.374039 947.130981,205.205811 947.018250,211.033600 
	C946.904236,216.931305 944.689514,219.008469 938.728088,219.031311 
	C930.592041,219.062500 922.455872,219.039093 914.494019,219.039093 
	C914.114624,219.525482 913.745972,219.777588 913.746216,220.029312 
	C913.763855,238.002365 913.841797,255.975372 913.844604,273.948395 
	C913.846436,286.039642 924.372192,290.877594 935.662048,286.641510 
	C945.355164,283.004608 945.382385,282.943146 947.904785,293.096313 
	C948.945435,297.285034 950.462891,301.352875 951.644287,305.509583 
	C953.769592,312.986481 952.766418,315.505127 946.208191,319.639984 
	C945.237854,320.251770 944.255371,320.844330 942.971741,321.634644 
	C946.731812,325.313690 944.935242,328.578918 942.932800,332.305878 
	C939.813965,338.110596 937.352417,344.268433 934.177368,350.707825 
	C933.790527,351.747742 933.838562,352.356445 933.886597,352.965179 
	C933.845337,354.056244 933.804077,355.147308 933.302246,356.693665 
	C932.869507,358.091583 932.897400,359.034210 932.925293,359.976807 
	C932.912964,361.057709 932.900635,362.138611 932.395508,363.659760 
	C930.626770,365.130707 929.350891,366.161407 928.075073,367.192139 
	C929.350281,368.120483 930.625549,369.048798 931.900818,369.977112 
	C931.779236,373.353271 931.657715,376.729462 931.045776,380.569458 
	C930.671265,384.012115 930.787109,386.990997 930.902954,389.969879 
	C930.955933,402.351257 931.008972,414.732605 930.717163,427.815887 
	C929.693848,429.638275 928.879578,430.699646 928.361816,431.890015 
	C926.630432,435.870697 928.267151,439.446686 931.790222,439.578094 
	C931.867554,439.765411 931.944824,439.952728 931.605286,440.557434 
	C929.966553,442.759430 927.597290,444.854767 932.288940,445.037476 
	C932.538025,446.424255 932.787109,447.811005 932.714355,449.805511 
	C931.705505,451.915680 929.704102,453.795319 933.430908,454.030884 
	C933.652100,455.414520 933.873291,456.798157 933.815674,458.724304 
	C933.777466,459.853302 934.017883,460.439850 934.258423,461.026367 
	C934.543213,462.737396 934.828003,464.448425 934.759766,466.851074 
	C934.574341,469.685913 934.741943,471.829132 934.909546,473.972351 
M780.203247,229.549423 
	C776.570801,216.713715 768.702271,210.210693 756.471863,209.936340 
	C741.393127,209.598099 729.485229,218.340622 727.157410,234.299683 
	C725.134521,248.168411 725.201355,262.461151 725.615295,276.529083 
	C725.957825,288.169373 731.747803,299.517303 724.143066,311.303131 
	C720.734802,316.585358 724.313782,320.313416 730.856201,320.321045 
	C744.341858,320.336761 757.827576,320.325684 771.313232,320.328522 
	C780.469421,320.330444 782.022888,318.842834 782.032166,309.634521 
	C782.053589,288.323853 782.111267,267.012268 781.925598,245.703049 
	C781.880981,240.579956 780.945374,235.464630 780.203247,229.549423 
M583.296814,203.222565 
	C581.396362,197.059464 579.495911,190.896347 577.595520,184.733246 
	C577.044250,184.713287 576.492981,184.693329 575.941772,184.673370 
	C568.817871,204.808945 561.693970,224.944519 554.387634,245.595612 
	C569.421448,246.107498 583.475769,246.381851 598.174438,245.663879 
	C592.994202,230.894073 588.273254,217.433823 583.296814,203.222565 
M286.794983,203.724365 
	C283.957123,195.696503 281.119263,187.668640 278.281403,179.640778 
	C277.908203,179.717377 277.535004,179.793961 277.161804,179.870544 
	C270.243561,199.964615 263.325287,220.058685 256.314087,240.422714 
	C271.084198,240.422714 285.004303,240.422714 299.604919,240.422714 
	C295.227386,227.928543 291.119843,216.204895 286.794983,203.724365 
M696.871460,318.450714 
	C698.989380,320.416626 706.387390,321.363495 707.505371,319.356659 
	C711.253723,312.628021 716.433777,306.739655 717.305603,298.386047 
	C719.005676,282.094482 710.416077,268.043549 708.440002,252.546173 
	C707.674255,254.158890 707.378784,255.764069 706.997131,257.348511 
	C703.938049,270.048248 703.119934,282.905060 703.333862,295.959534 
	C703.404602,300.278961 700.955566,304.648926 699.605408,308.979187 
	C698.710999,311.847809 697.721680,314.686859 696.871460,318.450714 
M921.418518,471.483185 
	C921.418518,471.483185 921.522034,471.422516 921.418518,471.483185 
z"/>
<path fill="#F3F3F0" opacity="1.000000" stroke="none" 
	d="
M931.884644,439.214539 
	C928.267151,439.446686 926.630432,435.870697 928.361816,431.890015 
	C928.879578,430.699646 929.693848,429.638275 930.635254,428.277161 
	C931.258423,431.641327 931.618713,435.246155 931.884644,439.214539 
z"/>
<path fill="#F3F3F0" opacity="1.000000" stroke="none" 
	d="
M932.051636,369.633972 
	C930.625549,369.048798 929.350281,368.120483 928.075073,367.192139 
	C929.350891,366.161407 930.626770,365.130707 932.247131,364.039520 
	C932.461975,365.749634 932.332214,367.520264 932.051636,369.633972 
z"/>
<path fill="#F3F3F0" opacity="1.000000" stroke="none" 
	d="
M931.050049,389.606934 
	C930.787109,386.990997 930.671265,384.012115 930.874390,380.995972 
	C931.194641,383.720428 931.195862,386.482208 931.050049,389.606934 
z"/>
<path fill="#F3F3F0" opacity="1.000000" stroke="none" 
	d="
M935.067993,473.655212 
	C934.741943,471.829132 934.574341,469.685913 934.674683,467.281799 
	C935.037231,469.126617 935.131897,471.232361 935.067993,473.655212 
z"/>
<path fill="#F3F3F0" opacity="1.000000" stroke="none" 
	d="
M932.400513,444.735931 
	C927.597290,444.854767 929.966553,442.759430 931.531494,440.852295 
	C932.087036,441.964600 932.299622,443.199493 932.400513,444.735931 
z"/>
<path fill="#F3F3F0" opacity="1.000000" stroke="none" 
	d="
M921.856323,383.286743 
	C922.174500,384.493988 922.375610,385.997772 922.318787,387.739807 
	C921.953674,386.513123 921.846436,385.048218 921.856323,383.286743 
z"/>
<path fill="#F3F3F0" opacity="1.000000" stroke="none" 
	d="
M933.540527,453.701782 
	C929.704102,453.795319 931.705505,451.915680 932.638550,450.226715 
	C933.139709,451.151031 933.394897,452.261871 933.540527,453.701782 
z"/>
<path fill="#F3F3F0" opacity="1.000000" stroke="none" 
	d="
M933.087646,359.705505 
	C932.897400,359.034210 932.869507,358.091583 933.114502,357.060791 
	C933.341614,357.793121 933.295837,358.613678 933.087646,359.705505 
z"/>
<path fill="#F3F3F0" opacity="1.000000" stroke="none" 
	d="
M934.047791,352.749786 
	C933.838562,352.356445 933.790527,351.747742 933.963623,351.055908 
	C934.192871,351.493347 934.200928,352.013855 934.047791,352.749786 
z"/>
<path fill="#E9EAE7" opacity="1.000000" stroke="none" 
	d="
M845.614380,250.586166 
	C844.957642,250.984467 844.247620,250.986862 843.537598,250.989243 
	C843.673889,250.569717 843.810242,249.793518 843.946533,249.793533 
	C844.484741,249.793579 845.022949,250.037064 845.614380,250.586166 
z"/>
<path fill="#F3F3F0" opacity="1.000000" stroke="none" 
	d="
M921.934570,435.191101 
	C922.180603,435.595184 922.294189,436.170227 922.177979,436.882812 
	C921.899475,436.467621 921.850769,435.914856 921.934570,435.191101 
z"/>
<path fill="#F3F3F0" opacity="1.000000" stroke="none" 
	d="
M920.930237,449.247284 
	C921.160278,449.622498 921.250977,450.224121 921.132202,450.924469 
	C920.878784,450.506683 920.834839,449.990173 920.930237,449.247284 
z"/>
<path fill="#F3F3F0" opacity="1.000000" stroke="none" 
	d="
M934.367065,460.776154 
	C934.017883,460.439850 933.777466,459.853302 933.744324,459.141968 
	C934.126343,459.520050 934.301025,460.023010 934.367065,460.776154 
z"/>
<path fill="#F3F3F0" opacity="1.000000" stroke="none" 
	d="
M930.308594,481.866211 
	C930.555847,481.285339 931.117920,480.698242 932.021729,480.126495 
	C931.783386,480.714569 931.203430,481.287292 930.308594,481.866211 
z"/>
<path fill="#F3F3F0" opacity="1.000000" stroke="none" 
	d="
M921.470276,471.452850 
	C921.522034,471.422516 921.418518,471.483185 921.470276,471.452850 
z"/>
</svg>